<?xml version="1.0" encoding="UTF-8" standalone="no"?>
<svg
   version="1.1"
   viewBox="0.0 -100.0 1000.00 420.00"
   width="300" height="100"
   id="svg60"
   sodipodi:docname="logo.svg"
   xmlns:inkscape="http://www.inkscape.org/namespaces/inkscape"
   xmlns:sodipodi="http://sodipodi.sourceforge.net/DTD/sodipodi-0.dtd"
   xmlns="http://www.w3.org/2000/svg"
   xmlns:svg="http://www.w3.org/2000/svg">
  <defs
     id="defs64" />
  <sodipodi:namedview
     id="namedview62"
     pagecolor="#ffffff"
     bordercolor="#000000"
     borderopacity="0.25"
     inkscape:showpageshadow="2"
     inkscape:pageopacity="0.0"
     inkscape:pagecheckerboard="0"
     inkscape:deskcolor="#d1d1d1" />
  <path
     fill="#3cb54a"
     d="   M 51.38 31.66   Q 82.81 19.64 113.90 8.19   A 0.35 0.34 79.3 0 1 114.36 8.51   L 114.50 35.99   A 2.00 1.99 -15.1 0 1 113.49 37.74   L 37.55 81.50   A 0.36 0.36 0.0 0 1 37.01 81.24   Q 34.37 61.15 35.27 42.22   Q 35.36 40.28 35.71 38.45   A 1.36 1.33 76.1 0 1 36.18 37.65   Q 37.15 36.83 38.45 36.38   Q 44.52 34.29 51.38 31.66   Z"
     id="path2" />
  <path
     fill="#17889b"
     d="   M 181.13 135.23   Q 161.08 177.32 122.37 200.43   Q 121.43 200.99 120.35 201.00   A 0.61 0.61 0.0 0 1 119.73 200.39   L 119.68 8.78   Q 119.68 8.07 120.35 8.32   Q 156.10 21.87 189.85 34.48   Q 193.29 35.76 196.89 37.01   A 2.08 2.08 0.0 0 1 198.24 38.59   Q 198.52 40.15 198.60 41.67   C 200.18 73.45 194.62 106.92 181.13 135.23   Z   M 191.10 50.85   L 125.29 25.69   A 0.29 0.28 10.7 0 0 124.90 25.95   L 124.77 36.43   A 1.40 1.40 0.0 0 0 125.66 37.75   Q 151.81 48.00 177.88 58.25   Q 179.77 58.99 180.57 60.82   Q 184.85 70.69 188.82 79.68   A 0.42 0.42 0.0 0 0 189.57 79.73   Q 190.07 78.93 190.25 77.97   Q 192.55 65.62 191.46 51.34   A 0.56 0.56 0.0 0 0 191.10 50.85   Z   M 124.88 77.97   L 124.71 88.44   Q 124.70 89.08 125.27 89.38   L 168.92 112.15   Q 170.23 112.84 170.32 114.31   L 171.62 135.75   Q 171.69 136.92 172.34 135.95   C 177.91 127.75 181.47 117.10 183.35 107.51   A 1.23 1.22 19.0 0 0 182.70 106.18   Q 156.85 93.01 131.22 80.19   Q 128.58 78.87 125.61 77.51   A 0.52 0.51 12.7 0 0 124.88 77.97   Z   M 143.10 159.10   A 1.56 1.56 0.0 0 1 143.80 160.79   Q 142.04 168.31 140.29 175.52   Q 140.14 176.10 140.56 176.53   Q 140.78 176.76 141.04 176.58   Q 151.65 169.49 159.32 156.65   A 1.07 1.07 0.0 0 0 158.93 155.17   L 125.54 136.02   A 0.54 0.54 0.0 0 0 124.73 136.47   L 124.41 146.49   A 1.89 1.89 0.0 0 0 125.31 148.15   L 143.10 159.10   Z"
     id="path4" />
  <path
     fill="#000000"
     d="   M 401.96 74.22   Q 401.96 75.36 402.71 74.51   Q 409.19 67.15 419.41 69.60   C 427.72 71.59 429.29 79.92 429.26 87.47   Q 429.21 100.03 429.24 112.07   A 0.71 0.71 0.0 0 1 428.53 112.78   L 416.50 112.78   A 0.87 0.86 -90.0 0 1 415.64 111.91   Q 415.69 101.10 415.62 89.75   C 415.60 85.26 414.70 79.41 408.85 79.84   C 403.68 80.23 401.88 85.21 401.90 89.81   Q 401.95 100.82 401.94 111.83   A 0.93 0.93 0.0 0 1 401.01 112.76   L 388.76 112.77   Q 388.25 112.77 388.25 112.26   L 388.27 50.50   A 0.73 0.73 0.0 0 1 389.00 49.77   L 400.85 49.75   Q 401.95 49.75 401.95 50.85   L 401.96 74.22   Z"
     id="path6" />
  <path
     fill="#000000"
     d="   M 523.30 97.71   C 523.31 102.23 526.40 104.07 530.45 102.83   Q 532.26 102.28 532.26 104.16   L 532.26 111.12   A 1.70 1.69 -5.9 0 1 530.90 112.78   C 522.23 114.51 513.59 115.35 510.22 105.25   Q 509.71 103.72 509.72 99.00   Q 509.75 76.21 509.83 50.44   A 0.67 0.66 -0.0 0 1 510.50 49.78   L 522.70 49.77   A 0.57 0.57 0.0 0 1 523.27 50.33   Q 523.30 73.02 523.30 97.71   Z"
     id="path8" />
  <path
     fill="#000000"
     d="   M 563.40 72.58   Q 564.92 74.25 564.90 71.99   L 564.79 50.52   A 0.70 0.70 0.0 0 1 565.49 49.81   L 577.62 49.75   Q 578.49 49.75 578.49 50.62   L 578.49 112.01   A 0.75 0.75 0.0 0 1 577.74 112.76   L 565.77 112.75   A 0.95 0.95 0.0 0 1 564.84 111.62   Q 565.10 110.29 564.78 109.00   A 0.61 0.61 0.0 0 0 563.72 108.77   C 558.53 115.19 547.29 115.30 541.28 110.28   Q 535.78 105.69 534.71 97.76   C 532.80 83.67 538.14 68.64 554.50 69.08   Q 560.38 69.24 563.40 72.58   Z   M 556.1144 103.1387   A 11.82 8.62 92.5 0 0 565.2418 91.7060   A 11.82 8.62 92.5 0 0 557.1456 79.5213   A 11.82 8.62 92.5 0 0 548.0182 90.9540   A 11.82 8.62 92.5 0 0 556.1144 103.1387   Z"
     id="path10" />
  <ellipse
     fill="#000000"
     cx="0.00"
     cy="0.00"
     transform="translate(445.06,56.97) rotate(0.2)"
     rx="7.91"
     ry="7.05"
     id="ellipse12" />
  <path
     fill="#3cb54a"
     d="   M 114.26 93.90   L 50.39 130.57   A 0.34 0.34 0.0 0 1 49.89 130.38   L 38.74 94.81   A 0.34 0.34 0.0 0 1 38.90 94.41   L 113.83 51.24   A 0.34 0.34 0.0 0 1 114.34 51.54   L 114.43 93.60   A 0.34 0.34 0.0 0 1 114.26 93.90   Z"
     id="path14" />
  <path
     fill="#000000"
     d="   M 225.77 93.64   Q 225.44 94.07 225.51 94.62   C 227.35 108.62 241.02 110.54 250.58 103.20   Q 252.12 102.02 252.16 103.96   L 252.23 107.79   Q 252.28 110.11 250.16 111.06   Q 241.64 114.88 232.85 113.33   C 219.14 110.91 216.08 96.56 218.61 84.67   C 220.71 74.84 229.06 68.28 239.42 69.12   C 252.24 70.14 255.85 81.60 254.99 92.70   Q 254.94 93.40 254.24 93.39   L 226.42 93.31   A 0.81 0.80 17.9 0 0 225.77 93.64   Z   M 226.81 87.10   L 247.07 86.96   A 0.36 0.36 0.0 0 0 247.43 86.60   L 247.42 86.03   A 10.51 10.48 89.6 0 0 236.87 75.59   L 236.85 75.59   A 10.51 10.48 89.6 0 0 226.44 86.17   L 226.45 86.74   A 0.36 0.36 0.0 0 0 226.81 87.10   Z"
     id="path16" />
  <path
     fill="#000000"
     d="   M 279.24 76.20   C 262.91 82.13 267.68 112.30 287.68 106.66   C 289.74 106.08 291.46 104.87 293.31 103.83   Q 294.03 103.42 294.03 104.25   L 294.00 109.71   A 1.76 1.76 0.0 0 1 293.00 111.30   C 280.98 117.07 265.42 112.75 262.47 98.30   C 260.11 86.72 264.42 73.19 277.02 69.94   Q 285.33 67.80 293.47 70.80   Q 294.03 71.00 294.03 71.60   L 294.01 78.60   A 0.23 0.23 0.0 0 1 293.65 78.79   Q 285.94 73.76 279.24 76.20   Z"
     id="path18" />
  <path
     fill="#000000"
     d="   M 342.5510 94.4874   A 18.97 18.97 0.0 0 1 323.6474 113.5235   L 320.0274 113.5362   A 18.97 18.97 0.0 0 1 300.9913 94.6325   L 300.9690 88.2326   A 18.97 18.97 0.0 0 1 319.8726 69.1965   L 323.4926 69.1838   A 18.97 18.97 0.0 0 1 342.5287 88.0875   L 342.5510 94.4874   Z   M 321.8866 107.6099   A 16.21 13.64 89.8 0 0 335.4699 91.3524   A 16.21 13.64 89.8 0 0 321.7734 75.1901   A 16.21 13.64 89.8 0 0 308.1901 91.4476   A 16.21 13.64 89.8 0 0 321.8866 107.6099   Z"
     id="path20" />
  <path
     fill="#000000"
     d="   M 367.67 99.29   Q 366.46 98.04 364.53 97.38   C 357.68 95.06 349.63 92.94 348.81 84.24   C 347.24 67.58 368.31 67.72 378.59 70.49   Q 379.02 70.61 379.02 71.06   L 379.01 80.27   Q 379.01 81.69 377.72 81.09   C 373.56 79.14 367.22 77.29 363.13 79.97   A 2.05 2.04 56.5 0 0 362.56 82.82   Q 363.68 84.50 365.74 85.19   C 373.50 87.82 381.96 90.26 381.40 100.54   C 380.58 115.70 359.49 114.92 349.66 111.97   A 1.56 1.56 0.0 0 1 348.55 110.45   L 348.68 101.05   A 0.55 0.55 0.0 0 1 349.51 100.58   C 354.50 103.53 361.77 105.76 367.12 102.84   A 2.26 2.25 53.8 0 0 367.67 99.29   Z"
     id="path22" />
  <path
     fill="#000000"
     d="   M 477.09 98.55   Q 477.91 99.67 478.17 100.03   A 8.86 8.84 74.3 0 0 484.60 103.64   Q 493.05 104.35 498.35 101.00   Q 499.80 100.09 499.80 101.81   L 499.76 109.22   Q 499.75 110.93 498.13 111.49   C 478.83 118.07 460.12 111.41 462.87 87.84   C 464.27 75.80 473.61 68.31 485.82 69.10   Q 497.16 69.83 501.42 79.18   C 503.52 83.80 503.42 89.18 503.42 94.24   A 1.21 1.21 0.0 0 1 502.21 95.45   L 478.72 95.35   Q 474.75 95.33 477.09 98.55   Z   M 482.09 78.70   A 1.78 1.78 0.0 0 0 480.61 79.31   L 476.63 83.93   A 1.78 1.78 0.0 0 0 477.98 86.87   L 489.01 86.85   A 1.78 1.78 0.0 0 0 490.58 84.23   L 488.31 79.99   A 1.78 1.78 0.0 0 0 486.88 79.06   L 482.09 78.70   Z"
     id="path24" />
  <path
     fill="#000000"
     d="   M 449.22 113.80   C 441.63 113.74 438.09 107.27 438.07 100.48   Q 438.04 85.71 438.06 71.14   A 1.19 1.19 0.0 0 1 439.25 69.95   L 450.58 69.99   A 1.06 1.06 0.0 0 1 451.64 71.05   Q 451.73 84.77 451.76 98.25   C 451.76 102.70 455.26 103.96 458.96 102.77   Q 460.65 102.23 460.64 104.01   L 460.60 111.44   Q 460.60 112.45 459.61 112.68   Q 454.64 113.84 449.22 113.80   Z"
     id="path26" />
  <path
     fill="#3cb54a"
     d="   M 113.87 150.32   L 76.74 171.47   A 0.97 0.97 0.0 0 1 75.46 171.18   L 55.67 142.44   A 0.97 0.97 0.0 0 1 55.98 141.04   L 113.04 108.10   A 0.97 0.97 0.0 0 1 114.49 108.95   L 114.36 149.48   A 0.97 0.97 0.0 0 1 113.87 150.32   Z"
     id="path28" />
  <path
     fill="#000000"
     d="   M 473.73 146.11   Q 474.28 146.34 474.91 146.33   Q 475.55 146.32 475.85 146.88   Q 476.47 148.05 476.02 149.17   Q 475.79 149.73 475.19 149.80   C 470.48 150.42 468.78 148.11 468.76 143.69   Q 468.73 132.13 468.80 121.13   Q 468.80 120.21 469.72 120.21   L 471.57 120.20   Q 472.44 120.20 472.45 121.07   L 472.48 144.25   A 2.01 2.01 0.0 0 0 473.73 146.11   Z"
     id="path30" />
  <circle
     fill="#000000"
     cx="516.75"
     cy="123.00"
     r="2.26"
     id="circle32" />
  <path
     fill="#000000"
     d="   M 508.81 146.85   Q 509.61 146.76 510.36 146.43   Q 511.22 146.05 511.28 146.99   L 511.36 148.38   Q 511.44 149.53 510.32 149.84   Q 507.39 150.65 504.93 149.37   C 502.94 148.34 502.77 145.41 502.76 143.40   Q 502.74 138.75 502.76 134.10   Q 502.76 133.52 502.26 133.23   Q 501.24 132.65 500.03 132.72   Q 499.20 132.76 499.22 131.93   L 499.25 130.55   Q 499.27 129.49 500.30 129.70   Q 502.07 130.05 502.72 128.74   C 503.23 127.72 502.55 126.28 502.99 125.04   Q 503.09 124.76 503.36 124.62   Q 504.70 123.90 506.10 124.10   Q 506.68 124.19 506.61 124.78   L 506.21 127.89   A 1.59 1.59 0.0 0 0 507.89 129.68   L 510.50 129.52   Q 511.29 129.47 511.28 130.26   L 511.26 131.97   Q 511.24 133.31 509.91 133.13   L 507.95 132.86   A 1.43 1.43 0.0 0 0 506.33 134.30   L 506.51 144.83   A 2.07 2.07 0.0 0 0 508.81 146.85   Z"
     id="path34" />
  <path
     fill="#000000"
     d="   M 406.65 128.18   L 406.47 125.75   Q 406.39 124.63 407.49 124.42   L 409.25 124.10   Q 410.34 123.89 410.25 125.01   L 410.02 127.93   A 1.64 1.64 0.0 0 0 411.68 129.70   L 414.14 129.66   A 0.79 0.77 -12.7 0 1 414.84 130.09   Q 415.36 131.20 414.95 132.41   A 0.94 0.93 12.1 0 1 413.99 133.03   L 411.64 132.86   A 1.49 1.49 0.0 0 0 410.05 134.36   L 410.16 144.65   A 2.24 2.24 0.0 0 0 412.90 146.81   L 414.26 146.49   Q 414.90 146.34 415.05 146.98   C 415.31 148.06 415.21 149.61 413.87 149.92   C 409.80 150.85 406.78 149.25 406.62 144.88   Q 406.43 139.48 406.56 134.17   Q 406.57 133.63 406.13 133.33   Q 405.20 132.68 404.01 132.75   A 0.89 0.89 0.0 0 1 403.10 132.08   Q 402.90 131.24 403.13 130.37   Q 403.30 129.70 403.99 129.81   Q 405.30 130.02 406.21 129.24   A 1.30 1.30 0.0 0 0 406.65 128.18   Z"
     id="path36" />
  <path
     fill="#000000"
     d="   M 349.71 148.77   L 349.80 157.53   Q 349.82 158.64 348.71 158.71   L 347.33 158.79   Q 346.05 158.86 346.05 157.58   L 346.04 130.89   A 1.51 1.50 -71.7 0 1 348.44 129.68   L 349.98 130.83   Q 350.39 131.14 350.86 130.95   C 352.27 130.40 353.33 129.41 354.94 129.31   C 364.19 128.76 366.00 137.61 363.57 144.48   C 361.95 149.05 357.14 151.11 352.66 149.53   C 351.82 149.24 351.17 148.62 350.35 148.32   Q 349.70 148.08 349.71 148.77   Z   M 354.6008 146.9545   A 7.28 5.60 94.8 0 0 360.7904 140.1686   A 7.28 5.60 94.8 0 0 355.8192 132.4455   A 7.28 5.60 94.8 0 0 349.6296 139.2314   A 7.28 5.60 94.8 0 0 354.6008 146.9545   Z"
     id="path38" />
  <path
     fill="#000000"
     d="   M 372.22 140.75   A 1.01 1.01 0.0 0 0 371.22 141.96   C 372.29 147.40 378.24 148.23 382.16 145.17   Q 383.48 144.14 383.50 145.82   L 383.51 146.68   A 2.58 2.56 77.9 0 1 381.97 149.07   C 374.75 152.22 367.89 149.09 367.39 140.64   C 367.19 137.18 368.16 133.49 370.98 131.22   C 374.77 128.17 381.27 128.53 383.58 133.35   Q 385.07 136.44 384.92 139.97   A 0.86 0.86 0.0 0 1 384.06 140.79   L 372.22 140.75   Z   M 371.67 137.53   L 380.75 137.65   A 0.23 0.23 0.0 0 0 380.98 137.42   L 380.98 137.30   A 4.73 4.67 -89.3 0 0 376.37 132.51   L 376.17 132.51   A 4.73 4.67 -89.3 0 0 371.44 137.18   L 371.44 137.30   A 0.23 0.23 0.0 0 0 371.67 137.53   Z"
     id="path40" />
  <path
     fill="#000000"
     d="   M 391.85 134.89   C 392.10 137.26 396.12 138.46 398.04 139.32   C 401.19 140.72 402.21 144.20 400.51 147.05   C 398.31 150.74 392.27 150.64 388.80 149.36   A 1.50 1.50 0.0 0 1 387.82 147.87   L 387.93 146.01   Q 387.99 145.00 388.89 145.47   C 391.54 146.83 394.65 147.96 397.02 145.86   A 1.56 1.53 71.0 0 0 397.54 144.77   C 397.66 142.51 393.76 141.20 392.07 140.56   C 386.33 138.40 386.69 131.28 392.55 129.70   Q 396.03 128.76 399.26 129.67   Q 400.44 130.00 400.49 131.22   L 400.55 132.76   Q 400.61 134.14 399.38 133.53   C 397.48 132.58 394.70 131.98 392.76 133.14   Q 391.73 133.76 391.85 134.89   Z"
     id="path42" />
  <path
     fill="#000000"
     d="   M 438.41 144.11   C 437.76 142.11 433.85 140.90 432.05 140.05   C 427.36 137.84 428.22 131.47 432.88 129.89   Q 436.37 128.71 440.10 129.61   A 1.84 1.83 7.5 0 1 441.50 131.43   L 441.48 132.49   Q 441.45 134.17 439.94 133.43   Q 436.10 131.55 433.65 133.33   Q 432.05 134.50 433.09 136.18   Q 433.43 136.72 434.72 137.30   C 437.30 138.45 441.35 139.56 442.09 142.76   C 443.78 150.02 434.94 151.04 430.01 149.50   Q 428.69 149.09 428.75 147.71   L 428.83 146.07   Q 428.89 144.79 429.98 145.47   C 432.04 146.76 435.70 147.82 437.77 146.07   Q 438.78 145.22 438.41 144.11   Z"
     id="path44" />
  <path
     fill="#000000"
     d="   M 453.7141 150.2331   A 10.62 9.96 96.9 0 1 445.1021 138.4934   A 10.62 9.96 96.9 0 1 456.2659 129.1469   A 10.62 9.96 96.9 0 1 464.8779 140.8866   A 10.62 9.96 96.9 0 1 453.7141 150.2331   Z   M 454.9437 147.0296   A 7.29 6.10 90.6 0 0 461.1197 139.8039   A 7.29 6.10 90.6 0 0 455.0963 132.4504   A 7.29 6.10 90.6 0 0 448.9203 139.6761   A 7.29 6.10 90.6 0 0 454.9437 147.0296   Z"
     id="path46" />
  <path
     fill="#000000"
     d="   M 543.4619 141.2906   A 8.83 8.83 0.0 0 1 534.5857 150.0743   L 532.9058 150.0655   A 8.83 8.83 0.0 0 1 524.1221 141.1893   L 524.1381 138.1294   A 8.83 8.83 0.0 0 1 533.0143 129.3457   L 534.6942 129.3545   A 8.83 8.83 0.0 0 1 543.4779 138.2307   L 543.4619 141.2906   Z   M 533.8146 147.0000   A 7.27 6.07 90.2 0 0 539.9100 139.7512   A 7.27 6.07 90.2 0 0 533.8654 132.4600   A 7.27 6.07 90.2 0 0 527.7700 139.7088   A 7.27 6.07 90.2 0 0 533.8146 147.0000   Z"
     id="path48" />
  <path
     fill="#000000"
     d="   M 552.12 131.26   C 556.84 127.35 563.69 129.01 564.39 135.74   Q 564.71 138.94 564.47 148.74   Q 564.45 149.92 563.27 149.84   L 561.81 149.73   Q 560.74 149.65 560.79 148.58   Q 561.04 142.39 560.62 136.82   C 560.09 129.88 551.89 132.02 551.56 138.26   Q 551.28 143.61 551.44 148.56   Q 551.47 149.84 550.19 149.86   L 549.22 149.88   Q 547.78 149.90 547.78 148.47   L 547.78 130.28   Q 547.78 129.70 548.34 129.55   Q 550.62 128.95 551.33 131.03   A 0.50 0.50 0.0 0 0 552.12 131.26   Z"
     id="path50" />
  <path
     fill="#000000"
     d="   M 578.70 145.00   A 1.95 1.95 0.0 0 0 577.86 142.77   C 574.32 140.59 567.29 139.37 569.59 133.23   C 571.16 129.06 577.09 128.66 580.64 129.77   Q 581.75 130.11 581.76 131.27   L 581.77 132.79   A 0.82 0.81 12.3 0 1 580.61 133.53   C 578.44 132.52 575.16 131.74 573.42 133.83   A 1.92 1.91 -56.3 0 0 574.00 136.76   Q 576.46 138.03 578.98 139.19   Q 583.54 141.28 582.23 145.93   C 580.92 150.53 574.17 150.71 570.43 149.50   Q 568.93 149.02 569.01 147.45   L 569.06 146.55   Q 569.14 144.83 570.65 145.68   C 572.75 146.87 577.74 148.21 578.70 145.00   Z"
     id="path52" />
  <path
     fill="#000000"
     d="   M 490.25 149.00   Q 489.52 149.60 488.63 149.81   C 481.06 151.61 478.63 146.87 478.72 140.30   Q 478.79 135.18 478.77 130.57   Q 478.76 129.54 479.79 129.61   L 481.73 129.75   A 0.84 0.84 0.0 0 1 482.51 130.62   Q 482.30 136.87 482.67 142.54   Q 482.95 146.85 487.28 146.84   Q 490.00 146.83 491.54 142.37   A 4.20 3.96 56.1 0 0 491.76 141.04   L 491.77 130.65   Q 491.77 129.56 492.85 129.54   L 494.23 129.51   Q 495.49 129.48 495.49 130.73   L 495.55 149.00   Q 495.55 149.62 494.94 149.72   Q 493.15 150.03 491.74 148.97   A 1.21 1.20 43.7 0 0 490.25 149.00   Z"
     id="path54" />
  <path
     fill="#000000"
     d="   M 519.99 146.18   L 521.21 146.47   Q 521.63 146.57 521.85 146.94   Q 522.43 147.98 522.15 149.01   A 1.09 1.07 3.7 0 1 521.26 149.78   C 517.31 150.35 514.92 148.55 514.85 144.65   Q 514.72 137.06 514.92 130.34   Q 514.94 129.52 515.77 129.51   L 516.97 129.49   Q 518.47 129.47 518.48 130.97   L 518.59 144.42   A 1.82 1.82 0.0 0 0 519.99 146.18   Z"
     id="path56" />
  <path
     fill="#3cb54a"
     d="   M 91.88 176.49   Q 103.40 170.00 113.75 164.01   A 0.34 0.34 0.0 0 1 114.26 164.30   L 114.29 199.52   Q 114.30 201.97 112.17 200.76   Q 97.74 192.55 85.70 181.05   A 0.54 0.53 46.1 0 1 85.71 180.27   C 87.54 178.57 89.71 177.72 91.88 176.49   Z"
     id="path58" />
</svg>
